<svg width="84" height="40" viewBox="0 0 84 40" fill="none" xmlns="http://www.w3.org/2000/svg">
<path d="M53 11V33C53 34.1365 53.5379 34.2902 54 35C54.4609 35.7102 55.0059 36 56 36C56.7095 36 56.9883 36.5325 58 36C59.0113 35.4675 60.8289 34.2069 62 33V19C62 17.8285 61.2836 16.6748 61 16C60.7153 15.3263 60.7098 14.3555 60 14V14C60.7802 14 61.2015 14.2489 62 14C62.7985 13.7519 63.2894 13.4259 64 13C64.7095 12.5741 65.5022 11.5321 66 11V11V11C66.0004 11.8048 66.007 26.129 66 28C65.9821 32.8903 68.3509 38.6228 76 39C77.4532 39.0716 78.0949 37.9051 79 37C79.9051 36.0949 81 35.5266 81 34C81 32.9005 80.6033 31.6919 80 31C79.3964 30.3081 77.9397 29.4792 77 29C76.0591 28.5208 75.0288 28.4259 74 28C72.8993 27.5033 71.993 26.6386 71 26C70.0059 25.361 69.6387 24.9941 69 24C68.361 23.007 68 21.5623 68 20C68 18.4388 68.2015 17.2602 69 16C69.7985 14.7406 70.5803 13.7277 72 13C73.4193 12.2731 75.1541 12 77 12C77.8868 12 79.1299 11.8759 80 12C80.8693 12.1248 82.1832 11.7522 83 12L81 19V19C80.6807 17.1191 79.958 15.0299 79 14C78.0416 12.9712 77.2061 13 76 13C74.6507 13 72.7456 13.042 72 14C71.2548 14.9583 71 16.7939 71 18C71 19.0645 71.4142 19.3077 72 20C72.5858 20.6919 73.0591 21.5208 74 22C74.9401 22.4792 75.9701 22.5395 77 23C78.0996 23.4617 80.0059 24.3792 81 25C81.993 25.6211 82.3427 26.0242 83 27C83.6562 27.9766 84 29.4742 84 31C84 32.8813 83.8689 34.7052 83 36C82.1296 37.2963 80.232 39.9539 76 40C72.6389 40.0369 69.9664 38 67 38C64.7331 38 62.9226 39.3252 62 40V40V36C62 35.5033 61.9817 35.4974 62 35C62.0175 34.5037 61.9642 34.3193 62 34V34C61.2548 34.9941 59.9584 36.0417 59 37C58.0416 37.9583 57.0824 38.361 56 39C54.9168 39.6386 54.0292 40 53 40C51.5095 40 50.7989 39.0463 50 38C49.7953 37.7317 49.1522 37.3069 49 37C48.5057 37.6889 47.8492 38.5148 47 39C46.1303 39.4963 44.8522 40 44 40C42.9705 40 42.7095 39.6923 42 39C41.2894 38.3081 41 37.4554 41 36V35V35C39.8639 36.3842 38.3485 38.1307 37 39C35.6507 39.8693 34.3485 40 33 40C31.6161 40 30.0288 39.0995 29 38C27.9701 36.9001 28 35.7751 28 34C28 32.5092 28.0416 31.42 29 30C29.9584 28.5808 32.065 27.0828 34 26C35.9339 24.9176 38.0537 23.5325 41 23C41 21.5454 40.9817 20.2602 41 19C41.0175 17.7406 41 16.781 41 16C41 14.8643 40.4434 14.6211 40 14C39.5558 13.3792 38.8164 13 38 13C37.1486 13 36.5321 13.4862 36 14C35.4675 14.5149 35.3726 14.2373 35 15C34.6274 15.7635 34.3368 17.2198 34 18C33.6624 18.7814 33.4609 19.4858 33 20C32.5383 20.5149 31.7452 20 31 20C30.4318 20 29.3901 20.4255 29 20C28.6091 19.5741 29 18.6748 29 18C29 16.9005 29.0059 16.0112 30 15C30.9934 13.9884 32.4909 13.6215 34 13C35.508 12.3796 37.4376 12 39 12C41.2003 12 42.7931 11.9534 44 13C45.2061 14.047 46 15.1899 46 17C46 18.1365 46.0175 19.4917 46 21C45.9817 22.5087 46.0175 24.3318 46 26C45.9817 27.6685 45.0175 29.4209 45 31C44.9817 32.5795 45 33.7939 45 35C45 35.8875 45.734 36.5395 46 37C46.2664 37.4617 46.3964 38 47 38C47.5675 38 48.3964 37.4971 49 37V37C48.6364 36.1651 48 35.1018 48 34V19C48 17.8285 48.3193 16.6748 48 16C47.6807 15.3263 46.6737 14.3555 46 14V14C46.7802 14 48.2015 14.2489 49 14C49.7985 13.7519 50.2894 13.4259 51 13C51.7095 12.5741 52.5029 11.5321 53 11V11V11ZM10 0V0C9.07665 0.390872 8.4259 1.04166 8 2C7.5741 2.95834 8 4.07782 8 5L7 15H21V5C21 4.07782 20.4434 2.95834 20 2C19.5558 1.04166 18.8518 0.390872 18 0V0H29V0C28.1124 0.390872 27.4434 1.04166 27 2C26.5558 2.95834 26 4.07782 26 5V35C26 36.1365 26.485 37.1482 27 38C27.5142 38.8514 28.2548 39.6095 29 40V40H18V40C18.7098 39.6095 19.485 38.8514 20 38C20.5142 37.1482 21 36.1365 21 35V16H7L8 35C8 36.1365 7.48504 37.1482 8 38C8.5142 38.8514 9.25477 39.6095 10 40V40H0V40C0.709451 39.6095 1.48542 38.8514 2 38C2.5142 37.1482 3 36.1365 3 35V5C3 4.07782 2.40763 2.95834 2 2C1.59161 1.04166 0.92259 0.390872 0 0V0H10ZM41 24C38.7639 24.4974 37.1711 25.0949 36 26C34.8285 26.9051 33.4434 27.8822 33 29C32.5558 30.1182 33 31.8643 33 33C33 34.3492 33.4493 35.2377 34 36C34.55 36.7639 34.9705 37 36 37C36.6741 37 37.1657 36.3726 38 36C38.8335 35.6274 40.0766 35.8879 41 35C41 33.4746 40.9817 31.8101 41 30C41.0175 28.1899 40.9642 25.7747 41 24V24Z" fill="white"/>
</svg>
